<?xml version="1.0" encoding="utf-8"?><svg xmlns="http://www.w3.org/2000/svg" xmlns:xlink="http://www.w3.org/1999/xlink"><symbol viewBox="0 0 9 15" id="arrow--to_right" xmlns="http://www.w3.org/2000/svg"><path d="M1 1l6 7.038L1 14"/></symbol><symbol viewBox="0 0 67 67" id="conversation" xmlns="http://www.w3.org/2000/svg"><path d="M23.899 47.974c-.092-.026-.197-.04-.29-.053a8.337 8.337 0 002.329-5.791v-6.893c0-.065 0-.13-.014-.183.014-.131.014-.25.014-.38V30.31c0-.72-.592-1.31-1.316-1.31h-8.825c-3.71 0-6.735 3.014-6.735 6.709v6.42c0 2.241.882 4.285 2.328 5.792a1.13 1.13 0 00-.289.053C4.893 48.537 0 53.752 0 60.094v5.596C0 66.41.592 67 1.315 67h32.37c.723 0 1.315-.59 1.315-1.31v-5.596c0-6.342-4.88-11.557-11.101-12.12zM11.693 37.386v-1.664c0-2.254 1.841-4.088 4.104-4.088h7.51v3.053a2.799 2.799 0 01-2.802 2.79h-8.812v-.09zm0 2.7h8.812a5.512 5.512 0 002.802-.774v2.818c0 3.184-2.604 5.778-5.8 5.778-3.197 0-5.8-2.594-5.8-5.778v-2.044h-.014zm8.668 10.456L17.493 53.4l-2.867-2.857h5.735zM32.369 64.38H2.631v-2.62h5.458c.723 0 1.315-.59 1.315-1.31 0-.721-.592-1.311-1.315-1.311H2.683c.447-4.416 3.92-7.954 8.326-8.517l5.577 5.556c.25.249.579.38.934.38.355 0 .684-.145.934-.38l5.576-5.556c4.71.602 8.366 4.612 8.366 9.46v4.298h-.027zm23.53-45.42c-.092-.026-.197-.039-.29-.052a8.337 8.337 0 002.329-5.791v-6.88c0-.065 0-.13-.014-.183.014-.131.014-.25.014-.38V1.31c0-.72-.592-1.31-1.316-1.31h-8.825c-3.71 0-6.735 3.014-6.735 6.709v6.42c0 2.241.882 4.285 2.328 5.792a1.13 1.13 0 00-.289.053C36.88 19.537 32 24.752 32 31.094v5.596c0 .72.592 1.31 1.315 1.31h10.588c.724 0 1.316-.59 1.316-1.31 0-.721-.592-1.31-1.316-1.31h-9.272v-4.286c0-4.848 3.656-8.87 8.365-9.46l5.577 5.556c.263.262.592.38.934.38.342 0 .67-.131.933-.38l5.577-5.556c4.709.603 8.366 4.612 8.366 9.46v4.285h-9.694c-.724 0-1.315.59-1.315 1.31 0 .721.591 1.311 1.315 1.311h10.996c.723 0 1.315-.59 1.315-1.31v-5.596c0-6.355-4.893-11.57-11.101-12.133zm-6.406 5.426l-2.867-2.857h5.722l-2.855 2.857zm5.814-11.256c0 3.184-2.604 5.778-5.8 5.778-3.197 0-5.8-2.594-5.8-5.778v-2.058h8.812a5.512 5.512 0 002.801-.773v2.83h-.013zm-2.802-4.678h-8.812V6.709c0-2.254 1.841-4.088 4.104-4.088h7.51v3.053c0 1.533-1.263 2.778-2.802 2.778z"/><path d="M49.71 36.71A.99.99 0 0050 36c0-.26-.11-.52-.29-.71A.99.99 0 0049 35c-.26 0-.52.11-.71.29A.99.99 0 0048 36c0 .26.11.52.29.71a1.014 1.014 0 001.42 0zM6.473 25h16.261c2.68 0 5.01-1.649 5.995-4.122h4.984c.518 0 .997-.32 1.191-.825a1.364 1.364 0 00-.285-1.45l-5.411-5.558V6.65c0-3.67-2.9-6.649-6.474-6.649H6.474C2.9 0 0 2.979 0 6.649V18.35C0 22.021 2.9 25 6.473 25zM2.59 6.649c0-2.194 1.748-3.99 3.884-3.99h16.261c2.136 0 3.884 1.796 3.884 3.99v6.941c0 .36.143.692.376.945l3.586 3.683h-2.797c-.608 0-1.126.426-1.255 1.037-.402 1.822-1.968 3.085-3.78 3.085H6.472c-2.136 0-3.884-1.795-3.884-3.989V6.65zM60.527 42H44.266c-2.68 0-5.01 1.649-5.995 4.122h-4.984c-.518 0-.997.32-1.191.825a1.364 1.364 0 00.285 1.45l5.411 5.558v6.396c0 3.67 2.9 6.649 6.474 6.649h16.26C64.1 67 67 64.021 67 60.351V48.65c0-3.671-2.9-6.65-6.473-6.65zm3.884 18.351c0 2.194-1.748 3.99-3.884 3.99H44.266c-2.136 0-3.884-1.796-3.884-3.99V53.41c0-.36-.143-.692-.376-.945l-3.586-3.683h2.797c.608 0 1.126-.426 1.255-1.037.402-1.822 1.968-3.085 3.78-3.085h16.275c2.136 0 3.884 1.795 3.884 3.989V60.35z"/><path d="M56.659 51.384l-3.636 3.478-1.696-1.621a1.406 1.406 0 00-1.927 0 1.262 1.262 0 000 1.843l2.652 2.537c.273.261.615.379.97.379.356 0 .698-.13.971-.38l4.607-4.405a1.262 1.262 0 000-1.844 1.437 1.437 0 00-1.941.013zM12.284 10.071c.714 0 1.298-.612 1.298-1.361 0-.558.22-1.076.61-1.457a1.83 1.83 0 011.44-.531c.933.068 1.698.858 1.763 1.852.065.994-.558 1.879-1.479 2.096-1.011.232-1.712 1.158-1.712 2.247v.721c0 .75.584 1.362 1.297 1.362.714 0 1.297-.613 1.297-1.362v-.394c2.011-.627 3.334-2.614 3.191-4.847-.155-2.329-1.945-4.221-4.176-4.384-1.259-.096-2.465.354-3.386 1.252C11.52 6.15 11 7.416 11 8.71c-.013.749.571 1.361 1.284 1.361zM16 17c-.26 0-.52.11-.71.29A.99.99 0 0015 18c0 .27.11.52.29.71.19.19.44.29.71.29.26 0 .52-.11.71-.29A.99.99 0 0017 18c0-.27-.11-.52-.29-.71-.19-.18-.45-.29-.71-.29zm-3 42c-.26 0-.52.11-.71.29-.19.18-.29.44-.29.71 0 .27.11.52.29.71.19.19.44.29.71.29.27 0 .52-.11.71-.29.19-.18.29-.44.29-.71 0-.27-.11-.52-.29-.71A.99.99 0 0013 59z"/></symbol><symbol viewBox="0 0 64 68" id="growth" xmlns="http://www.w3.org/2000/svg"><path d="M60.471 11.688h-.026c-2.482-.412-4.452 1.115-5.135 3.97l-4.085 12.419c-1.025-.625-2.483-.917-4.125.04a8.776 8.776 0 00-5.096-1.647c-.184 0-.38.013-.578.013a12 12 0 00-8.852-5.074V10.48h3.165c2.483 0 4.505-2.045 4.505-4.556V.996A.998.998 0 0039.26 0h-4.15c-2.483 0-4.505 2.045-4.505 4.555v2.139a5.562 5.562 0 00-3.626-1.355h-5.437a.998.998 0 00-.985.996v4.197c0 3.121 2.508 5.658 5.595 5.658h4.453v5.246c-3.547.292-6.765 2.125-8.853 5.073-.197-.013-.381-.013-.578-.013a8.688 8.688 0 00-4.742 1.395c-1.458-.664-2.732-.359-3.664.199L8.682 15.672c-.683-2.869-2.653-4.383-5.136-3.971H3.52c-3.244.65-3.704 3.785-3.467 5.538 0 .013 0 .04.013.053l3.743 19.444c.473 3.427 2.758 5.459 3.73 6.162.013.014.027.014.04.027 6.843 4.555 6.908 4.356 8.274 6.508h-1.957a2.08 2.08 0 00-2.075 2.085v14.25c0 1.236.985 2.232 2.207 2.232h16.667c.486 0 .933-.16 1.3-.412a2.2 2.2 0 001.301.412h6.66a.998.998 0 00.984-.996.998.998 0 00-.985-.996h-6.659a.321.321 0 01-.315-.319v-8.075H50.2v8.155a.237.237 0 01-.237.239h-5.425a.998.998 0 00-.985.996c0 .544.447.996.985.996h5.425a2.215 2.215 0 002.206-2.231V51.518a2.08 2.08 0 00-2.075-2.085h-1.957c1.366-2.165 1.51-2.006 8.275-6.508.013-.013.026-.013.04-.027.971-.717 3.257-2.736 3.73-6.162l.761-3.931a.998.998 0 00-.775-1.17.988.988 0 00-1.155.785l-.762 3.957c0 .027-.013.04-.013.067-.355 2.563-1.97 4.117-2.916 4.82-7.25 4.835-7.224 4.49-9.234 7.717-.092.146-.17.28-.276.439h-12.24c1.195-7.04.92-6.495 5.254-12.817 1.05-1.487 1.983-1.939 9.076-6.654 1.694-1.129 2.797.173 2.994.438v.014l.014.013c.223.292.853 1.302-.184 2.218a1544.67 1544.67 0 00-6.2 5.552.999.999 0 00-.079 1.407.973.973 0 001.393.08c.039-.04 4.373-3.918 6.2-5.551 1.628-1.448 1.391-3.307.748-4.476L57.2 16.23c.013-.027.013-.04.013-.067l.013-.053c.315-1.301 1.064-2.776 2.89-2.483 2.114.438 1.957 2.749 1.891 3.28L59.92 27.745a.998.998 0 00.775 1.168.988.988 0 001.156-.783l2.088-10.864c0-.014.013-.04.013-.053.223-1.74-.236-4.875-3.48-5.526zm-29.867 2.496H26.15c-1.997 0-3.625-1.646-3.625-3.665V7.33h4.452c1.997 0 3.626 1.647 3.626 3.666v3.187zm1.97-6.733V4.542c0-1.408 1.13-2.563 2.535-2.563h3.165V5.91c0 1.408-1.13 2.563-2.535 2.563h-3.165V7.451zM8.682 41.278c-.946-.704-2.574-2.258-2.916-4.821 0-.027-.013-.053-.013-.066L1.997 16.934c-.066-.532-.237-2.843 1.89-3.28 1.827-.293 2.588 1.181 2.89 2.483l.014.053c0 .026.013.04.013.066l4.413 13.414c-.644 1.17-.88 3.028.749 4.476 1.825 1.62 6.16 5.512 6.2 5.552a.985.985 0 001.391-.08 1.012 1.012 0 00-.078-1.408c-.04-.04-4.374-3.931-6.2-5.551-1.038-.917-.407-1.926-.184-2.218 0 0 0-.014.013-.014v-.013c.67-.89 1.76-1.209 2.89-.505.066.04 3.126 2.072 3.192 2.112 4.334 2.869 5.109 3.374 5.989 4.609 4.426 6.468 4.085 5.976 5.24 12.803H18.18l-.277-.438c-1.996-3.241-1.97-2.883-9.22-7.717zm22.013 24.73H14.028a.237.237 0 01-.237-.24v-8.154h17.22v8.075a.321.321 0 01-.316.319zm.316-14.463v4.077H13.778v-4.104c0-.066.053-.093.105-.093h17.023c.013 0 .026 0 .039.013.04.014.066.053.066.107zm19.097-.12c.053 0 .105.027.105.093v4.104H32.981v-4.091c.013-.053.052-.093.092-.093.446-.013 16.576-.013 17.035-.013zM37.447 35.142c0 .013 0 .013 0 0-4.558 5.977-5.07 9.536-5.451 11.78-.355-2.111-.63-3.506-1.182-4.847-.893-2.218-4.059-6.68-4.466-7.185-1.103-1.342-2.535-2.192-7.946-5.79-.014-.014-.027-.014-.04-.027a6.776 6.776 0 012.81-.611c.303 0 .618.026.933.066.381.053.75-.12.96-.451 1.878-2.949 5.056-4.715 8.524-4.715 3.454 0 6.646 1.766 8.524 4.715.21.332.578.504.959.451a6.676 6.676 0 014.203.784c-5.438 3.612-6.699 4.37-7.828 5.83z"/></symbol><symbol viewBox="0 0 72 74" id="idea" xmlns="http://www.w3.org/2000/svg"><path d="M58.433 28.434a1.478 1.478 0 000 2.091l.075.075c.281.267.652.4 1.007.4.4 0 .786-.163 1.082-.475a1.466 1.466 0 00-.074-2.091c-.563-.579-1.512-.579-2.09 0zm-1.063-2.332a20.477 20.477 0 00-2.546-1.63c-4.831-2.645-9.954-3.184-14.8-1.537-.77.253-1.193 1.14-.96 1.98.233.839 1.048 1.298 1.819 1.045 4.118-1.394 8.484-.935 12.631 1.346a18 18 0 012.212 1.425c.247.19.538.269.815.269.466 0 .917-.238 1.208-.697.45-.728.276-1.71-.379-2.2z"/><path d="M70.368 44.522c-.597-1.247-1.588-3.305-1.603-4 1.705-4.174 1.078-8.797-1.748-13.03-4.371-6.506-13.302-11.217-21.272-11.217-4.21 0-8.32 1-12.006 2.899C32.676 13.39 27.591 9 21.472 9 14.595 9 9 14.565 9 21.406c0 4.348 2.23 8.304 5.959 10.58 1.078.652 1.326 1.217 1.413 2.159v8.478a2.937 2.937 0 002.943 2.928h.496c.801 6.348 3.89 12.101 8.785 16.348.044.144.175.811-.393 2.811-.452 1.565-1.136 3.29-1.748 4.826-.408 1.03-.758 1.913-.977 2.58-.145.435-.058.927.219 1.29.277.377.714.594 1.18.594h20.777c.684 0 1.617-.304 2.214-1.754.263-.637.423-1.39.598-2.188.174-.783.582-2.623.976-2.84h.087c.073.014.146.014.233.014 2.171 0 3.963.101 5.522.188 4.604.261 7.387.406 9.82-3.087 1.239-1.782 1.093-4.362.947-7.116-.073-1.42-.16-2.87-.014-4.087.247-.246.889-.68 1.296-.956C70.703 51.232 72 50.348 72 49c.014-1-.612-2.348-1.632-4.478zm-53.88-14.986a9.428 9.428 0 01-4.574-8.116c0-5.246 4.283-9.507 9.558-9.507 5.274 0 9.558 4.26 9.558 9.507a9.428 9.428 0 01-4.575 8.116c-1.355.826-2.171 1.797-2.55 3.102h-4.866c-.38-1.305-1.195-2.276-2.55-3.102zm7.17 6v2.116h-4.372v-2.116h4.371zm-4.343 7.13c-.014 0-.029-.014-.029-.028V40.55h4.371v2.087c0 .014-.014.029-.029.029h-4.313zm48.372 7.131c-1.253.855-2.331 1.594-2.491 2.71-.219 1.536-.131 3.232-.044 4.87.117 2.029.233 4.348-.437 5.304-1.457 2.073-2.71 2.102-7.27 1.84-1.501-.086-3.38-.188-5.595-.188-.845-.101-2.288.058-3.25 1.913-.495.942-.757 2.13-.975 3.174-.117.522-.277 1.261-.438 1.667H28.961c.058-.16.13-.319.204-.493 2.098-5.26 3.423-9.116 1.398-10.855-4.283-3.696-7.022-8.681-7.81-14.203h.875a2.936 2.936 0 002.943-2.927v-8.45c.088-.927.335-1.492 1.413-2.159 3.453-2.101 5.61-5.638 5.93-9.594a23.19 23.19 0 0111.846-3.232c6.935 0 15.05 4.275 18.838 9.927 1.632 2.42 3.206 6.203 1.443 10.406-.569 1.363.277 3.261 1.704 6.247.467.97 1.137 2.362 1.312 3.014-.306.304-.947.754-1.37 1.03z"/><path d="M23.724 18.5c.805.411 1.288.97 1.489 1.7.322 1.157-.161 2.42-.376 2.753a1.314 1.314 0 00.416 1.834c.228.147.47.213.724.213.443 0 .872-.213 1.127-.612.577-.89 1.234-2.924.697-4.865-.402-1.45-1.381-2.619-2.843-3.377a1.359 1.359 0 00-1.81.572c-.336.638-.081 1.436.576 1.781zM21 7c.55 0 1-.65 1-1.443V1.443C22 .65 21.55 0 21 0s-1 .65-1 1.443v4.114C20 6.35 20.45 7 21 7zM7 21c0-.55-.65-1-1.443-1H1.443C.65 20 0 20.45 0 21s.65 1 1.443 1h4.114C6.35 22 7 21.55 7 21zm5.274-12.783c.277.501.758.783 1.268.783.248 0 .495-.063.728-.204.7-.438.933-1.393.54-2.145l-2.084-3.867c-.408-.751-1.297-1.002-1.996-.58-.7.44-.933 1.394-.54 2.146l2.084 3.867zM2.783 12.73l3.863 2.08c.25.131.516.19.782.19.547 0 1.063-.264 1.36-.732.438-.703.173-1.596-.578-2.006l-3.863-2.064c-.75-.41-1.705-.161-2.142.542-.423.688-.173 1.58.578 1.99zM35.567 15c.266 0 .532-.058.782-.19l3.867-2.076c.751-.409 1.002-1.3.58-2.002-.44-.702-1.394-.935-2.145-.54l-3.867 2.075c-.751.409-1.002 1.3-.58 2.002a1.6 1.6 0 001.363.731zM6.65 28.197L2.785 30.27c-.751.409-1.002 1.3-.58 2a1.6 1.6 0 001.363.73c.266 0 .532-.058.782-.19l3.867-2.073c.751-.408 1.002-1.299.58-2-.44-.7-1.394-.948-2.145-.54zm6.724 6c-.594-.408-1.35-.16-1.696.54l-1.51 3.076c-.347.7-.137 1.59.458 1.997.198.132.408.19.619.19.433 0 .842-.262 1.077-.729l1.51-3.076c.347-.715.137-1.604-.458-1.998zm16.362-25.4c.234.14.481.203.73.203.51 0 .99-.282 1.267-.782l2.07-3.864c.408-.75.16-1.705-.54-2.142-.699-.438-1.588-.173-1.996.578l-2.07 3.864c-.408.75-.16 1.72.54 2.143z"/></symbol><symbol viewBox="0 0 75 67" id="respect" xmlns="http://www.w3.org/2000/svg"><path d="M73.528 53.971H51.3v-8.338a14.33 14.33 0 013.219-9.015l4.777-5.887a2.526 2.526 0 012.338-.902c.895.127 1.631.69 1.977 1.507.318.76.231 1.606-.23 2.296l-5.124 7.522c-.448.648-.26 1.52.404 1.957a1.467 1.467 0 002.006-.394l5.124-7.521a5.153 5.153 0 00.505-4.916c-.736-1.76-2.324-2.958-4.243-3.226-1.92-.267-3.796.465-4.994 1.944l-4.778 5.888a17.115 17.115 0 00-3.839 10.76v8.34c-.794 0-1.443.633-1.443 1.408V65.59c0 .775.65 1.409 1.443 1.409.794 0 1.444-.634 1.444-1.409v-8.803h22.226v8.803c0 .775.65 1.409 1.444 1.409.794 0 1.443-.634 1.443-1.409V55.38a1.475 1.475 0 00-1.472-1.409z"/><path d="M72.5 48c-.39 0-.78.165-1.065.435-.285.285-.435.66-.435 1.065 0 .39.165.78.435 1.065.285.285.66.435 1.065.435.39 0 .78-.165 1.065-.435.285-.285.435-.66.435-1.065 0-.39-.165-.78-.435-1.065A1.577 1.577 0 0072.5 48zM59.59 24.669c.324.728 1.176 1.057 1.925.757a1.42 1.42 0 00.778-1.872L55.2 7.366c-.676-1.557-.044-3.329 1.483-4.129a3.361 3.361 0 012.703-.2 3.23 3.23 0 011.954 1.815l6.697 15.687a37.332 37.332 0 013.026 14.774v8.258c0 .786.661 1.429 1.47 1.429.807 0 1.468-.643 1.468-1.429v-8.258a40.095 40.095 0 00-3.246-15.86L64.056 3.752c-.676-1.586-2.027-2.829-3.687-3.4a6.453 6.453 0 00-5.067.371c-2.88 1.5-4.07 4.844-2.791 7.759l7.08 16.188zM56.597 60.49a1.478 1.478 0 00-2.108-.09 1.476 1.476 0 00-.09 2.107l.015.015c.3.329.703.478 1.107.478.359 0 .717-.135 1.016-.389a1.52 1.52 0 00.06-2.122zm-30.04-6.62v-8.404a17.3 17.3 0 00-3.84-10.845l-4.777-5.933c-1.212-1.505-3.074-2.229-4.994-1.96-1.92.27-3.507 1.491-4.243 3.252a5.231 5.231 0 00.505 4.954l5.124 7.58a1.46 1.46 0 002.006.397c.664-.44.852-1.32.404-1.973l-5.138-7.58a2.446 2.446 0 01-.23-2.314 2.506 2.506 0 011.977-1.519 2.53 2.53 0 012.338.909l4.777 5.933a14.512 14.512 0 013.219 9.085v8.403H4.345V35.09c0-5.068.995-9.994 2.973-14.678l6.581-15.586a3.227 3.227 0 011.92-1.803 3.279 3.279 0 012.655.2 3.186 3.186 0 011.458 4.101l-6.971 16.07a1.399 1.399 0 00.765 1.859 1.44 1.44 0 001.89-.753l6.972-16.068c1.255-2.896.072-6.218-2.743-7.708a6.22 6.22 0 00-4.979-.37 6.118 6.118 0 00-3.623 3.38L4.647 19.318a40.267 40.267 0 00-3.19 15.757v18.78h-.014C.65 53.855 0 54.493 0 55.274V65.58C0 66.36.65 67 1.443 67c.794 0 1.444-.639 1.444-1.42v-8.87h22.226v8.872c0 .78.65 1.419 1.444 1.419.794 0 1.443-.639 1.443-1.42V55.29c0-.782-.65-1.42-1.443-1.42z"/><path d="M18.4 60.48a1.518 1.518 0 00.075 2.13c.283.27.641.39 1.014.39.402 0 .805-.165 1.103-.48l.015-.015c.552-.615.522-1.56-.09-2.115a1.512 1.512 0 00-2.117.09zM52 25.905C52 20.434 47.83 16 42.71 16c-2.071 0-4.085.753-5.71 2.089C35.375 16.753 33.361 16 31.29 16 26.17 16 22 20.448 22 25.905c0 3.14 2.43 6.949 7.234 11.34 3.423 3.14 6.802 5.414 6.946 5.513.245.17.532.242.806.242.273 0 .56-.085.805-.242.144-.1 3.523-2.373 6.946-5.513 4.818-4.377 7.263-8.2 7.263-11.34zm-9.175 9.237A65.63 65.63 0 0137 39.845c-1.18-.852-3.495-2.572-5.796-4.675-4.07-3.723-6.313-7.006-6.313-9.251 0-3.894 2.876-7.063 6.414-7.063 1.754 0 3.394.768 4.616 2.16.274.313.676.498 1.093.498.417 0 .82-.185 1.093-.498 1.223-1.392 2.862-2.16 4.617-2.16 3.538 0 6.414 3.17 6.414 7.063-.014 2.231-2.258 5.514-6.313 9.223z"/></symbol><symbol viewBox="0 0 19 18" id="star" xmlns="http://www.w3.org/2000/svg"><path d="M17.635 8.247c.34-.334.443-.802.307-1.236-.137-.434-.51-.735-.987-.801l-4.12-.602c-.17-.033-.34-.133-.408-.3l-1.838-3.64A1.215 1.215 0 009.5 1c-.477 0-.885.267-1.09.668L6.574 5.34c-.068.167-.239.267-.409.3l-4.119.569c-.476.066-.85.367-.987.801-.136.434-.034.902.307 1.236l2.961 2.838c.136.134.17.3.17.468l-.715 4.007c-.068.4.035.735.273 1.002a1.22 1.22 0 001.497.3l3.677-1.903a.676.676 0 01.51 0l3.676 1.903c.17.1.375.134.58.134.374 0 .714-.167.918-.434a1.11 1.11 0 00.272-.969l-.714-4.007c-.034-.167.034-.334.17-.467l2.995-2.872z"/></symbol></svg>