<?xml version="1.0" encoding="UTF-8"?>
<svg width="32px" height="32px" viewBox="0 0 32 32" version="1.1" xmlns="http://www.w3.org/2000/svg" xmlns:xlink="http://www.w3.org/1999/xlink">
    <!-- Generator: Sketch 56.3 (81716) - https://sketch.com -->
    <title>Shape</title>
    <desc>Created with Sketch.</desc>
    <g id="Page-1" stroke="none" stroke-width="1" fill="none" fill-rule="evenodd">
        <g id="12_聯絡我們" transform="translate(-255.000000, -1456.000000)" fill="#E4E4E4" fill-rule="nonzero">
            <g id="facebook-square-brands" transform="translate(255.000000, 1456.000000)">
                <path d="M28.5714286,0 L3.42857143,0 C1.53571429,0 0,1.53571429 0,3.42857143 L0,28.5714286 C0,30.4642857 1.53571429,32 3.42857143,32 L13.2285714,32 L13.2285714,21.1214286 L8.72857143,21.1214286 L8.72857143,16 L13.2285714,16 L13.2285714,12.1 C13.2285714,7.65714286 15.8714286,5.20714286 19.9214286,5.20714286 C21.8571429,5.20714286 23.8857143,5.55 23.8857143,5.55 L23.8857143,9.90714286 L21.65,9.90714286 C19.45,9.90714286 18.7642857,11.2714286 18.7642857,12.6714286 L18.7642857,16 L23.6785714,16 L22.8928571,21.1214286 L18.7642857,21.1214286 L18.7642857,32 L28.5714286,32 C30.4642857,32 32,30.4642857 32,28.5714286 L32,3.42857143 C32,1.53571429 30.4642857,0 28.5714286,0 Z" id="Shape"></path>
            </g>
        </g>
    </g>
</svg>