<?xml version="1.0" encoding="UTF-8"?>
<svg width="64px" height="68px" viewBox="0 0 64 68" version="1.1" xmlns="http://www.w3.org/2000/svg" xmlns:xlink="http://www.w3.org/1999/xlink">
    <!-- Generator: Sketch 56.3 (81716) - https://sketch.com -->
    <title>growth</title>
    <desc>Created with Sketch.</desc>
    <g id="Page-1" stroke="none" stroke-width="1" fill="none" fill-rule="evenodd">
        <g id="homepage" transform="translate(-156.000000, -2198.000000)" fill="#4173CA" fill-rule="nonzero">
            <g id="growth" transform="translate(156.000000, 2198.000000)">
                <path d="M60.4714336,11.6875 C60.4582991,11.6875 60.4451646,11.6875 60.4451646,11.6875 C57.96274,11.2757813 55.9925618,12.803125 55.3095666,15.6585938 L51.2247304,28.0765625 C50.2002377,27.4523438 48.7423058,27.1601563 47.1004906,28.1164063 C45.6162897,27.0539063 43.8299948,26.4695313 42.0042963,26.4695313 C41.820413,26.4695313 41.6233951,26.4828125 41.4263773,26.4828125 C39.3511229,23.534375 36.1200306,21.7015625 32.5737098,21.409375 L32.5737098,10.4789063 L35.7391295,10.4789063 C38.221554,10.4789063 40.2442704,8.43359375 40.2442704,5.9234375 L40.2442704,0.99609375 C40.2442704,0.4515625 39.7976966,0 39.2591812,0 L35.1086724,0 C32.6262478,0 30.6035315,2.0453125 30.6035315,4.55546875 L30.6035315,6.69375 C29.6315769,5.85703125 28.3575283,5.3390625 26.9784035,5.3390625 L21.5407116,5.3390625 C21.0021962,5.3390625 20.5556225,5.790625 20.5556225,6.33515625 L20.5556225,10.5320313 C20.5556225,13.653125 23.0643161,16.1898438 26.1509287,16.1898438 L30.6035315,16.1898438 L30.6035315,21.4359375 C27.0572107,21.728125 23.8392529,23.5609375 21.750864,26.509375 C21.5538461,26.4960938 21.3699628,26.4960938 21.172945,26.4960938 C19.4785917,26.4960938 17.849911,26.9742188 16.4313827,27.890625 C14.9734508,27.2265625 13.6994022,27.5320313 12.7668512,28.0898438 L8.68201496,15.671875 C7.99901984,12.803125 6.0288416,11.2890625 3.54641702,11.7007813 C3.53328249,11.7007813 3.52014797,11.7007813 3.52014797,11.7007813 C0.275921137,12.3515625 -0.183787119,15.4859375 0.0526342697,17.2390625 C0.0526342697,17.2523438 0.0526342697,17.2789063 0.0657687913,17.2921875 L3.80910745,36.7359375 C4.28195022,40.1625 6.56735698,42.1945313 7.53931158,42.8984375 C7.5524461,42.9117188 7.56558062,42.9117188 7.57871515,42.925 C14.4218009,47.4804688 14.4874735,47.28125 15.8534638,49.4328125 L13.89642,49.4328125 C13.89642,49.4328125 13.89642,49.4328125 13.89642,49.4328125 C12.7537167,49.4328125 11.8211656,50.3625 11.8211656,51.5179688 L11.8211656,65.76875 C11.8211656,67.0039063 12.8062547,68 14.0277653,68 L30.6954732,68 C31.1814505,68 31.6280242,67.840625 31.9957908,67.5882813 C32.3635574,67.8539063 32.8101311,68 33.2961084,68 L39.9553109,68 C40.4938263,68 40.9404,67.5484375 40.9404,67.0039063 C40.9404,66.459375 40.4938263,66.0078125 39.9553109,66.0078125 L33.2961084,66.0078125 C33.1253597,66.0078125 32.9808799,65.8617188 32.9808799,65.6890625 L32.9808799,57.6140625 L50.2002377,57.6140625 L50.2002377,65.76875 C50.2002377,65.9015625 50.0951616,66.0078125 49.9638163,66.0078125 L44.5392589,66.0078125 C44.0007435,66.0078125 43.5541698,66.459375 43.5541698,67.0039063 C43.5541698,67.5484375 44.0007435,68 44.5392589,68 L49.9638163,68 C51.1853269,68 52.170416,67.0039063 52.170416,65.76875 L52.170416,51.5179688 C52.170416,50.3625 51.2378649,49.4328125 50.0951616,49.4328125 C50.0951616,49.4328125 50.0951616,49.4328125 50.0951616,49.4328125 L48.1381178,49.4328125 C49.5041081,47.2679688 49.6485878,47.4273438 56.4128665,42.925 C56.426001,42.9117188 56.4391355,42.9117188 56.45227,42.8984375 C57.4242246,42.18125 59.7096314,40.1625 60.1824742,36.7359375 L60.9442764,32.8046875 C61.0493526,32.2601563 60.6947205,31.7421875 60.1693396,31.6359375 C59.6308242,31.5296875 59.1185779,31.8882813 59.0135017,32.4195313 L58.2516995,36.3773438 C58.2516995,36.4039063 58.238565,36.4171875 58.238565,36.44375 C57.8839329,39.0070313 56.2683867,40.5609375 55.3227012,41.2648438 C48.0724452,46.0992188 48.0987143,45.7539063 46.0891325,48.98125 C45.9971908,49.1273438 45.9183837,49.2601563 45.8133075,49.4195313 L33.5719334,49.4195313 C34.7671749,42.3804688 34.4913499,42.925 38.825742,36.603125 C39.8765038,35.115625 40.8090548,34.6640625 47.9016965,29.9492188 C49.5960497,28.8203125 50.6993496,30.121875 50.8963674,30.3875 C50.8963674,30.3875 50.8963674,30.3875 50.8963674,30.4007813 C50.8963674,30.4007813 50.9095019,30.4140625 50.9095019,30.4140625 C51.1327888,30.70625 51.7632458,31.715625 50.7256186,32.6320313 C48.8999201,34.2523438 44.565528,38.14375 44.5261244,38.1835938 C44.1189542,38.5421875 44.0795507,39.1796875 44.4473173,39.5914063 C44.8150839,40.003125 45.4324064,40.0429688 45.8395766,39.6710938 C45.8789801,39.63125 50.2133723,35.753125 52.0390708,34.1195313 C53.6677514,32.671875 53.4313301,30.8125 52.7877385,29.64375 L57.2009378,16.2296875 C57.2140723,16.203125 57.2140723,16.1898438 57.2140723,16.1632813 L57.2272068,16.1101563 C57.5424353,14.8085938 58.291103,13.334375 60.1168015,13.6265625 C62.2314595,14.0648438 62.0738453,16.3757813 62.0081727,16.9070313 L59.9197837,27.7445313 C59.8147075,28.2890625 60.1693396,28.8070313 60.6947205,28.9132813 C61.2332359,29.0195313 61.7454822,28.6609375 61.8505584,28.1296875 L63.9389473,17.265625 C63.9389473,17.2523438 63.9520819,17.2257813 63.9520819,17.2125 C64.1753687,15.4726563 63.7156605,12.3382813 60.4714336,11.6875 Z M30.6035315,14.184375 L26.1509287,14.184375 C24.1544814,14.184375 22.5258007,12.5375 22.5258007,10.51875 L22.5258007,7.33125 L26.9784035,7.33125 C28.9748508,7.33125 30.6035315,8.978125 30.6035315,10.996875 L30.6035315,14.184375 Z M32.5737098,7.45078125 L32.5737098,7.45078125 L32.5737098,4.5421875 C32.5737098,3.134375 33.7032786,1.97890625 35.1086724,1.97890625 L38.2740921,1.97890625 L38.2740921,5.91015625 C38.2740921,7.31796875 37.1445233,8.4734375 35.7391295,8.4734375 L32.5737098,8.4734375 L32.5737098,7.45078125 Z M8.68201496,41.278125 C7.73632941,40.5742187 6.10764873,39.0203125 5.76615117,36.4570312 C5.76615117,36.4304688 5.75301664,36.4039062 5.75301664,36.390625 L1.99654347,16.9335938 C1.93087086,16.4023438 1.76012208,14.0914062 3.88791458,13.653125 C5.71361308,13.3609375 6.47541533,14.8351562 6.77750933,16.1367188 L6.79064385,16.1898438 C6.79064385,16.2164062 6.80377837,16.2296875 6.80377837,16.25625 L11.2169776,29.6703125 C10.5733861,30.8390625 10.3369647,32.6984375 11.9656454,34.1460938 C13.7913439,35.7664063 18.125736,39.6578125 18.1651396,39.6976563 C18.5723097,40.05625 19.1896322,40.0296875 19.5573988,39.6179687 C19.9120309,39.20625 19.8857619,38.5820312 19.4785917,38.2101562 C19.4391882,38.1703125 15.104796,34.2789062 13.2790975,32.6585937 C12.2414703,31.7421875 12.8719274,30.7328125 13.0952142,30.440625 C13.0952142,30.440625 13.0952142,30.4273437 13.1083487,30.4273437 C13.1083487,30.4273437 13.1083487,30.4273437 13.1083487,30.4140625 C13.7782093,29.5242187 14.8683746,29.2054688 15.9979435,29.909375 C16.0636161,29.9492188 19.1239596,31.98125 19.1896322,32.0210937 C23.5240244,34.8898437 24.2989611,35.3945312 25.1789741,36.6296875 C25.1789741,36.6296875 25.1789741,36.6296875 25.1789741,36.6296875 C29.6053079,43.0976562 29.2638103,42.60625 30.4196482,49.4328125 L18.1782741,49.4328125 C18.0863324,49.2867187 17.9943908,49.140625 17.9024491,48.9945312 C15.9060018,45.7539062 15.9322709,46.1125 8.68201496,41.278125 Z M30.6954732,66.0078125 L14.0277653,66.0078125 C13.89642,66.0078125 13.7913439,65.9015625 13.7913439,65.76875 L13.7913439,57.6140625 L31.0107017,57.6140625 L31.0107017,65.6890625 L31.0107017,65.6890625 C31.0107017,65.8617187 30.8662219,66.0078125 30.6954732,66.0078125 Z M31.0107017,51.5445312 L31.0107017,55.621875 L13.7782093,55.621875 L13.7782093,51.5179687 C13.7782093,51.4515625 13.8307474,51.425 13.8832855,51.425 C14.3429938,51.425 30.4721863,51.425 30.9056255,51.425 C30.91876,51.425 30.9318946,51.425 30.9450291,51.4382812 C30.9450291,51.4382812 30.9450291,51.4382812 30.9450291,51.4382812 C30.9844326,51.4515625 31.0107017,51.4914062 31.0107017,51.5445312 L31.0107017,51.5445312 Z M50.1082961,51.425 C50.1608342,51.425 50.2133723,51.4515625 50.2133723,51.5179687 L50.2133723,55.621875 L32.9808799,55.621875 L32.9808799,51.5445312 L32.9808799,51.5445312 C32.9808799,51.5445312 32.9808799,51.53125 32.9808799,51.53125 C32.9940144,51.478125 33.033418,51.4382812 33.0728216,51.4382812 C33.5193953,51.425 49.6485878,51.425 50.1082961,51.425 Z M37.4466173,35.1421875 C37.4466173,35.1554687 37.4466173,35.1554687 37.4466173,35.1421875 C32.8889383,41.11875 32.3766919,44.678125 31.9957908,46.9226562 C31.6411587,44.8109375 31.3653338,43.4164062 30.8136839,42.075 C29.9205364,39.8570312 26.7551167,35.3945312 26.3479465,34.8898437 C25.2446467,33.5484375 23.8129838,32.6984375 18.4015609,29.0992187 C18.3884264,29.0859375 18.3752919,29.0859375 18.3621574,29.0726562 C19.2421703,28.6742187 20.1878559,28.4617187 21.172945,28.4617187 C21.475039,28.4617187 21.7902675,28.4882812 22.105496,28.528125 C22.4863972,28.58125 22.8541638,28.4085937 23.0643161,28.0765625 C24.9425527,25.128125 28.1211069,23.3617187 31.5886206,23.3617187 C35.0429998,23.3617187 38.2346886,25.128125 40.1129251,28.0765625 C40.3230775,28.4085937 40.6908441,28.58125 41.0717452,28.528125 C41.3869737,28.4882812 41.7022023,28.4617187 42.0042963,28.4617187 C43.1601342,28.4617187 44.2765685,28.7539062 45.2747921,29.3117187 C39.8371002,32.9242187 38.5761861,33.68125 37.4466173,35.1421875 Z" id="Shape"></path>
            </g>
        </g>
    </g>
</svg>