<?xml version="1.0" encoding="UTF-8"?>
<svg width="72px" height="74px" viewBox="0 0 72 74" version="1.1" xmlns="http://www.w3.org/2000/svg" xmlns:xlink="http://www.w3.org/1999/xlink">
    <!-- Generator: Sketch 56.3 (81716) - https://sketch.com -->
    <title>idea</title>
    <desc>Created with Sketch.</desc>
    <g id="Page-1" stroke="none" stroke-width="1" fill="none" fill-rule="evenodd">
        <g id="homepage" transform="translate(-152.000000, -2466.000000)" fill="#4173CA" fill-rule="nonzero">
            <g id="idea" transform="translate(152.000000, 2466.000000)">
                <path d="M58.4334765,28.433869 C57.8555078,29.0123609 57.8555078,29.946848 58.4334765,30.5253399 C58.4631159,30.5550062 58.4779356,30.5698393 58.507575,30.5995056 C58.7891495,30.8665019 59.1596422,31 59.5153151,31 C59.9154473,31 60.3007597,30.8368356 60.5971538,30.5253399 C61.1603027,29.9320148 61.1306633,28.9826947 60.5230553,28.433869 C59.9599064,27.855377 59.0114451,27.855377 58.4334765,28.433869 Z" id="Shape"></path>
                <path d="M57.370445,26.1021568 C56.5409762,25.4845836 55.6824032,24.9303513 54.8238302,24.4711302 C49.9925381,21.8266503 44.8702043,21.2882532 40.0243602,22.935115 C39.2530997,23.1884783 38.8310892,24.07525 39.0639226,24.9145161 C39.2967559,25.7537822 40.1116727,26.2130032 40.8829332,25.9596399 C45.0011731,24.5661415 49.3667985,25.0253626 53.5141426,27.3056326 C54.2417468,27.7015129 55.0130073,28.1924043 55.7260595,28.7308014 C55.9734449,28.920824 56.2644866,29 56.5409762,29 C57.0066429,29 57.4577575,28.7624719 57.7487992,28.3032508 C58.1999138,27.5748312 58.0252888,26.5930482 57.370445,26.1021568 Z" id="Shape"></path>
                <path d="M70.3679353,44.5217391 C69.7705741,43.2753623 68.7798288,41.2173913 68.765259,40.5217391 C70.4699238,36.3478261 69.8434231,31.7246377 67.0168847,27.4927536 C62.6459492,20.9855072 53.7146708,16.2753623 45.7449983,16.2753623 C41.5343304,16.2753623 37.425651,17.2753623 33.7394953,19.173913 C32.675901,13.3913043 27.5910459,9 21.4717361,9 C14.5947975,9 9,14.5652174 9,21.4057971 C9,25.7536232 11.2291771,29.7101449 14.9590422,31.9855072 C16.0372063,32.6376812 16.2848926,33.2028986 16.3723113,34.1449275 L16.3723113,39.0869565 L16.3723113,42.6231884 C16.3723113,44.2463768 17.6981618,45.5507246 19.3154079,45.5507246 L19.8107806,45.5507246 C20.6121188,51.8985507 23.7009133,57.6521739 28.5963611,61.8985507 C28.6400705,62.0434783 28.7711985,62.7101449 28.2029769,64.7101449 C27.7513136,66.2753623 27.0665337,68 26.4546027,69.5362319 C26.0466487,70.5652174 25.6969739,71.4492754 25.4784271,72.115942 C25.3327292,72.5507246 25.4201479,73.0434783 25.6969739,73.4057971 C25.9737998,73.7826087 26.4108933,74 26.8771265,74 L47.6536402,74 C48.3384201,74 49.2708863,73.6956522 49.8682475,72.2463768 C50.1305037,71.6086957 50.2907713,70.8550725 50.4656087,70.057971 C50.6404462,69.2753623 51.0484001,67.4347826 51.4417843,67.2173913 C51.4417843,67.2173913 51.4709239,67.2173913 51.5292031,67.2173913 C51.602052,67.2318841 51.6749009,67.2318841 51.7623196,67.2318841 C53.9332176,67.2318841 55.7253012,67.3333333 57.2842682,67.4202899 C61.8883203,67.6811594 64.6711493,67.826087 67.1043035,64.3333333 C68.3427352,62.5507246 68.1970373,59.9710145 68.0513395,57.2173913 C67.9784906,55.7971014 67.8910719,54.3478261 68.0367697,53.1304348 C68.2844561,52.884058 68.9255266,52.4492754 69.3334806,52.173913 C70.7030404,51.2318841 72,50.3478261 72,49 C72.0143211,48 71.3878203,46.6521739 70.3679353,44.5217391 Z M16.4888696,29.5362319 C13.6186219,27.7971014 11.913957,24.7536232 11.913957,21.4202899 C11.913957,16.173913 16.1974739,11.9130435 21.4717361,11.9130435 C26.7459984,11.9130435 31.0295153,16.173913 31.0295153,21.4202899 C31.0295153,24.7536232 29.3248504,27.7971014 26.4546027,29.5362319 C25.0996127,30.3623188 24.2837047,31.3333333 23.9048903,32.6376812 L21.4717361,32.6376812 L19.038582,32.6376812 C18.6597676,31.3333333 17.8438596,30.3623188 16.4888696,29.5362319 Z M23.6572039,35.5362319 L23.6572039,37.6521739 L19.2862684,37.6521739 L19.2862684,35.5362319 L23.6572039,35.5362319 L23.6572039,35.5362319 Z M19.3154079,42.6666667 C19.3008381,42.6666667 19.2862684,42.6521739 19.2862684,42.6376812 L19.2862684,40.5507246 L23.6572039,40.5507246 L23.6572039,42.6376812 C23.6572039,42.6521739 23.6426341,42.6666667 23.6280644,42.6666667 L19.3154079,42.6666667 Z M67.6870949,49.7971014 C66.4340933,50.6521739 65.3559292,51.3913043 65.1956616,52.5072464 C64.9771148,54.0434783 65.0645335,55.7391304 65.1519522,57.3768116 C65.2685105,59.4057971 65.3850688,61.7246377 64.7148587,62.6811594 C63.2578802,64.7536232 62.0048786,64.7826087 57.4445359,64.5217391 C55.943848,64.4347826 54.0643457,64.3333333 51.8497383,64.3333333 C51.0046908,64.2318841 49.562282,64.3913043 48.6006762,66.2463768 C48.1053035,67.1884058 47.8430474,68.3768116 47.6245006,69.4202899 C47.5079423,69.942029 47.3476747,70.6811594 47.1874071,71.0869565 L28.9606057,71.0869565 C29.0188849,70.9275362 29.0917338,70.7681159 29.1645827,70.5942029 C31.2626318,65.3333333 32.5884823,61.4782609 30.5632821,59.7391304 C26.2797653,56.0434783 23.5406456,51.057971 22.7538772,45.5362319 L23.6280644,45.5362319 C25.2598803,45.5362319 26.571161,44.2173913 26.571161,42.6086957 L26.571161,39.0724638 L26.571161,34.1594203 C26.6585797,33.2318841 26.906266,32.6666667 27.9844301,32 C31.4374692,29.8985507 33.5937974,26.3623188 33.9143327,22.4057971 C37.4839301,20.2898551 41.56347,19.173913 45.7595681,19.173913 C52.6947859,19.173913 60.8101562,23.4492754 64.5983004,29.1014493 C66.2301163,31.5217391 67.8036531,35.3043478 66.0407091,39.5072464 C65.4724875,40.8695652 66.3175351,42.7681159 67.745374,45.7536232 C68.2116071,46.7246377 68.8818172,48.115942 69.0566547,48.7681159 C68.7506892,49.0724638 68.1096186,49.5217391 67.6870949,49.7971014 Z" id="Shape"></path>
                <path d="M23.7241899,18.4992458 C24.5288697,18.911359 25.0116775,19.469706 25.2128474,20.2008747 C25.5347193,21.3574506 25.0519115,22.6203783 24.8373302,22.9527277 C24.4349904,23.5775446 24.622749,24.3884771 25.2530814,24.7872964 C25.481074,24.9335301 25.722478,25 25.9772932,25 C26.4198671,25 26.8490296,24.7872964 27.1038449,24.3884771 C27.680532,23.4977807 28.3376871,21.4638024 27.801234,19.5228819 C27.3988941,18.0738386 26.4198671,16.9039687 24.9580322,16.1462121 C24.3008771,15.8138627 23.4961973,16.0664482 23.1475028,16.717853 C22.8122195,17.3559639 23.0670348,18.1536024 23.7241899,18.4992458 Z" id="Shape"></path>
                <path d="M21,7 C21.55,7 22,6.35051546 22,5.55670103 L22,1.44329897 C22,0.649484536 21.55,0 21,0 C20.45,0 20,0.649484536 20,1.44329897 L20,5.55670103 C20,6.35051546 20.45,7 21,7 Z" id="Shape"></path>
                <path d="M7,21 C7,20.45 6.35051546,20 5.55670103,20 L1.44329897,20 C0.649484536,20 0,20.45 0,21 C0,21.55 0.649484536,22 1.44329897,22 L5.55670103,22 C6.35051546,22 7,21.55 7,21 Z" id="Shape"></path>
                <path d="M12.274155,8.21713856 C12.5509973,8.71816988 13.0318286,9 13.5418012,9 C13.7895022,9 14.0372032,8.93737108 14.2703335,8.79645603 C14.9697245,8.35805362 15.2028549,7.40296266 14.8094474,6.65141568 L12.725845,2.78408018 C12.3178669,2.03253319 11.4290575,1.78201753 10.7296665,2.20476271 C10.0302755,2.64316512 9.79714511,3.59825607 10.1905526,4.34980305 L12.274155,8.21713856 Z" id="Shape"></path>
                <path d="M2.78316543,12.7307477 L6.64598914,14.8096756 C6.89621254,14.9414387 7.1620749,15 7.42793726,15 C7.97530095,15 8.49138671,14.7364739 8.78852699,14.2679831 C9.22641794,13.565247 8.96055558,12.6721864 8.20988538,12.262257 L4.34706167,10.1979694 C3.59639148,9.78803997 2.64241477,10.0369257 2.20452383,10.7396619 C1.78227184,11.4277577 2.03249524,12.3208183 2.78316543,12.7307477 Z" id="Shape"></path>
                <path d="M35.5666688,15 C35.8327954,15 36.098922,14.9415338 36.349394,14.8099848 L40.2160563,12.7344338 C40.9674725,12.3251702 41.2179445,11.4335603 40.7952729,10.7319655 C40.3569468,10.0303708 39.4020221,9.79650594 38.650606,10.191153 L34.7839437,12.266704 C34.0325275,12.6759675 33.7820555,13.5675775 34.2047271,14.2691722 C34.5021626,14.736902 35.0187612,15 35.5666688,15 Z" id="Shape"></path>
                <path d="M6.65060599,28.1973914 L2.78394369,30.2702498 C2.03252753,30.6789825 1.78205548,31.5694357 2.20472707,32.2701203 C2.50216263,32.7372433 3.01876124,33 3.56666885,33 C3.8327954,33 4.09892196,32.9416096 4.34939401,32.8102313 L8.21605631,30.7373729 C8.96747247,30.3286402 9.21794452,29.438187 8.79527293,28.7375024 C8.35694684,28.0368179 7.40202214,27.7886588 6.65060599,28.1973914 Z" id="Shape"></path>
                <path d="M13.3744242,34.1971537 C12.7800786,33.7889133 12.0247644,34.0367736 11.6780628,34.7366143 L10.1674344,37.8129976 C9.82073286,38.5128384 10.0312303,39.4022194 10.6255758,39.8104598 C10.823691,39.9416799 11.0341884,40 11.2446858,40 C11.6780628,40 12.0866754,39.7375597 12.3219372,39.2709992 L13.8325656,36.1946159 C14.1792671,35.4801951 13.9687697,34.5908142 13.3744242,34.1971537 Z" id="Shape"></path>
                <path d="M29.7363798,8.79665813 C29.9695858,8.93743327 30.2173671,9 30.4651485,9 C30.9752865,9 31.4562739,8.71844971 31.733206,8.21791587 L33.802909,4.3544203 C34.2110195,3.60361953 33.9632381,2.6494769 33.2636202,2.21150979 C32.5640023,1.77354268 31.6749045,2.03945128 31.266794,2.79025204 L29.197091,6.65374762 C28.7889805,7.40454838 29.0367619,8.3743327 29.7363798,8.79665813 Z" id="Shape"></path>
            </g>
        </g>
    </g>
</svg>