<?xml version="1.0" encoding="UTF-8"?>
<svg width="75px" height="67px" viewBox="0 0 75 67" version="1.1" xmlns="http://www.w3.org/2000/svg" xmlns:xlink="http://www.w3.org/1999/xlink">
    <!-- Generator: Sketch 56.3 (81716) - https://sketch.com -->
    <title>respect-2</title>
    <desc>Created with Sketch.</desc>
    <g id="Page-1" stroke="none" stroke-width="1" fill="none" fill-rule="evenodd">
        <g id="homepage" transform="translate(-150.000000, -1741.000000)" fill="#4173CA" fill-rule="nonzero">
            <g id="respect-2" transform="translate(150.000000, 1741.000000)">
                <path d="M73.5278351,53.9711779 L51.3010309,53.9711779 L51.3010309,45.6327317 C51.3010309,42.3790475 52.4412371,39.1676189 54.5195876,36.6181953 L59.2969072,30.7305762 C59.8597938,30.0404008 60.7257732,29.7023557 61.6350515,29.8291226 C62.5298969,29.9558895 63.2659794,30.519298 63.6123711,31.3362404 C63.9298969,32.0968419 63.843299,32.9419547 63.3814433,33.6321301 L58.257732,41.1536339 C57.8103093,41.8015537 57.9979381,42.674837 58.6618557,43.1114786 C59.3257732,43.5481202 60.2206186,43.3650124 60.6680412,42.7170926 L65.7917526,35.1955888 C66.7876289,33.7448118 66.9752577,31.8996489 66.2969072,30.2798494 C65.5608247,28.5191978 63.9731959,27.3219547 62.0536082,27.0543356 C60.1340206,26.7867166 58.257732,27.5191476 57.0597938,28.998095 L52.2824742,34.8857141 C49.8,37.9422053 48.443299,41.7592981 48.443299,45.6468169 L48.443299,53.9852631 C47.6494845,53.9852631 47,54.6190977 47,55.3937844 L47,65.5914787 C47,66.3661654 47.6494845,67 48.443299,67 C49.2371134,67 49.8865979,66.3661654 49.8865979,65.5914787 L49.8865979,56.7882205 L72.1134021,56.7882205 L72.1134021,65.5914787 C72.1134021,66.3661654 72.7628866,67 73.556701,67 C74.3505155,67 75,66.3661654 75,65.5914787 L75,55.3796992 C74.971134,54.6050125 74.3216495,53.9711779 73.5278351,53.9711779 Z" id="Shape"></path>
                <path d="M72.5,48 C72.11,48 71.72,48.165 71.435,48.435 C71.15,48.72 71,49.095 71,49.5 C71,49.89 71.165,50.28 71.435,50.565 C71.72,50.85 72.095,51 72.5,51 C72.89,51 73.28,50.835 73.565,50.565 C73.85,50.28 74,49.905 74,49.5 C74,49.11 73.835,48.72 73.565,48.435 C73.28,48.165 72.89,48 72.5,48 Z" id="Shape"></path>
                <path d="M59.5905943,24.6685772 C59.9137411,25.3972508 60.7656733,25.7258683 61.5147861,25.4258262 C62.263899,25.1114964 62.6017342,24.2828088 62.2932759,23.5541351 L55.1987368,7.36615055 C54.5230664,5.80878928 55.1546713,4.03711224 56.6822739,3.23700002 C57.5195177,2.79408076 58.4742693,2.72264217 59.3849555,3.03697197 C60.2956417,3.35130177 60.9713121,3.99424908 61.3385243,4.85151217 L68.0364743,20.5394266 C70.048797,25.2400859 71.0623026,30.2122118 71.0623026,35.3129271 L71.0623026,43.5712282 C71.0623026,44.3570527 71.7232845,45 72.5311513,45 C73.3390181,45 74,44.3570527 74,43.5712282 L74,35.3129271 C74,29.8407311 72.913052,24.4971245 70.7538444,19.4535601 L64.0558944,3.75135788 C63.380224,2.16542117 62.0288832,0.922389693 60.3690842,0.35088097 C58.7092851,-0.220627754 56.8585358,-0.0920382911 55.3015562,0.72236164 C52.4226127,2.22257204 51.2328453,5.56589807 52.5107437,8.48059256 L59.5905943,24.6685772 Z" id="Shape"></path>
                <path d="M56.5973011,60.4890526 C56.0441146,59.8762619 55.0872515,59.8314236 54.489212,60.399376 C53.8762216,60.9523822 53.8313686,61.9089336 54.3995061,62.5067782 L54.4144571,62.5217243 C54.7134768,62.8505388 55.1171535,63 55.5208301,63 C55.8796538,63 56.2384775,62.865485 56.5374972,62.611401 C57.1205857,62.0583947 57.1654386,61.1167895 56.5973011,60.4890526 L56.5973011,60.4890526 Z" id="Shape"></path>
                <path d="M26.556701,53.8696664 L26.556701,45.466253 C26.556701,41.5484453 25.2,37.6874175 22.7175258,34.6213072 L17.9402062,28.6878159 C16.7278351,27.1831506 14.8659794,26.4592079 12.9463918,26.7289121 C11.0268041,26.9986162 9.43917526,28.2193824 8.70309278,29.9795568 C8.02474227,31.6119767 8.21237113,33.4573208 9.20824742,34.9335962 L14.3319588,42.5137023 C14.7793814,43.1666702 15.6742268,43.3512046 16.3381443,42.911161 C17.0020619,42.4711174 17.1896907,41.5910302 16.742268,40.9380622 L11.6041237,33.3579562 C11.142268,32.6765983 11.0556701,31.810706 11.3731959,31.0441785 C11.7195876,30.2208711 12.4556701,29.6530728 13.3505155,29.5253183 C14.2453608,29.3975637 15.1257732,29.7382426 15.6886598,30.4337954 L20.4659794,36.3672867 C22.5443299,38.9365736 23.6845361,42.1730233 23.6845361,45.452058 L23.6845361,53.8554715 L4.3443299,53.8554715 L4.3443299,35.0897407 C4.3443299,30.0221417 5.34020619,25.0964922 7.31752577,20.412157 L13.8989691,4.82609619 C14.2597938,3.97439888 14.9381443,3.33562589 15.8185567,3.02333688 C16.6989691,2.71104786 17.6371134,2.78202264 18.4742268,3.22206625 C19.9752577,4.01698374 20.5958763,5.77715819 19.9319588,7.32440831 L12.9608247,23.3930976 C12.643299,24.1170403 12.9896907,24.9545427 13.7257732,25.2526367 C14.4618557,25.5649257 15.3134021,25.2242468 15.6164948,24.5003041 L22.5876289,8.43161481 C23.843299,5.53584395 22.6597938,2.21422443 19.8453608,0.723754136 C18.3154639,-0.0853583111 16.4969072,-0.227307863 14.8659794,0.3546853 C13.2350515,0.922483509 11.9072165,2.15744461 11.243299,3.73308464 L4.64742268,19.3191455 C2.5257732,24.3441596 1.45773196,29.6388779 1.45773196,35.0755457 L1.45773196,53.8554715 L1.44329897,53.8554715 C0.649484536,53.8554715 0,54.4942445 0,55.274967 L0,65.5805045 C0,66.361227 0.649484536,67 1.44329897,67 C2.2371134,67 2.88659794,66.361227 2.88659794,65.5805045 L2.88659794,56.7086575 L25.1134021,56.7086575 L25.1134021,65.5805045 C25.1134021,66.361227 25.7628866,67 26.556701,67 C27.3505155,67 28,66.361227 28,65.5805045 L28,55.289162 C28,54.5084394 27.3505155,53.8696664 26.556701,53.8696664 Z" id="Shape"></path>
                <path d="M18.4000947,60.4796666 L18.4000947,60.4796666 C17.8333641,61.10975 17.878106,62.054875 18.4746645,62.6099484 C18.7580298,62.8799841 19.115965,63 19.488814,63 C19.891491,63 20.294168,62.8349782 20.5924473,62.5199365 L20.6073612,62.5049345 C21.1591779,61.8898532 21.1293499,60.9447281 20.5178775,60.3896547 C19.906405,59.8345813 18.9668253,59.8795873 18.4000947,60.4796666 Z" id="Shape"></path>
                <path d="M52,25.9047368 C52,20.4336842 47.8293384,16 42.7094919,16 C40.6385427,16 38.6251198,16.7531579 37,18.0889474 C35.3748802,16.7531579 33.3614573,16 31.2905081,16 C26.1706616,16 22,20.4478947 22,25.9047368 C22,29.0452632 24.430489,32.8536842 29.2339406,37.2447368 C32.6567593,40.3852632 36.0364334,42.6589474 36.1802493,42.7584211 C36.4247363,42.9289474 36.7123682,43 36.9856184,43 C37.2588686,43 37.5465005,42.9147368 37.7909875,42.7584211 C37.9348035,42.6589474 41.3144775,40.3852632 44.7372963,37.2447368 C49.5551294,32.8678947 52,29.0452632 52,25.9047368 Z M42.8245446,35.1415789 C40.5234899,37.2447368 38.1936721,38.9926316 37,39.8452632 C35.8207095,38.9926316 33.5052733,37.2731579 31.2042186,35.17 C27.1342282,31.4468421 24.8906999,28.1642105 24.8906999,25.9189474 C24.8906999,22.0252632 27.7670182,18.8563158 31.3048897,18.8563158 C33.0594439,18.8563158 34.6989453,19.6236842 35.9213806,21.0163158 C36.1946309,21.3289474 36.5973154,21.5136842 37.0143816,21.5136842 C37.4314477,21.5136842 37.8341323,21.3289474 38.1073826,21.0163158 C39.3298178,19.6236842 40.9693193,18.8563158 42.7238734,18.8563158 C46.261745,18.8563158 49.1380633,22.0252632 49.1380633,25.9189474 C49.1236817,28.15 46.8801534,31.4326316 42.8245446,35.1415789 Z" id="Shape"></path>
            </g>
        </g>
    </g>
</svg>