<svg width="19" height="18" xmlns="http://www.w3.org/2000/svg"><path d="M17.635 8.247c.34-.334.443-.802.307-1.236-.137-.434-.51-.735-.987-.801l-4.12-.602c-.17-.033-.34-.133-.408-.3l-1.838-3.64A1.215 1.215 0 0 0 9.5 1c-.477 0-.885.267-1.09.668L6.574 5.34c-.068.167-.239.267-.409.3l-4.119.569c-.476.066-.85.367-.987.801-.136.434-.034.902.307 1.236l2.961 2.838c.136.134.17.3.17.468l-.715 4.007c-.068.4.035.735.273 1.002.374.434.987.568 1.497.3l3.677-1.903a.676.676 0 0 1 .51 0l3.676 1.903c.17.1.375.134.58.134.374 0 .714-.167.918-.434.238-.267.34-.601.272-.969l-.714-4.007c-.034-.167.034-.334.17-.467l2.995-2.872z" stroke="#20458E" stroke-width="1.5" fill="none" fill-rule="evenodd"/></svg>
