<?xml version="1.0" encoding="UTF-8"?>
<svg width="39px" height="27px" viewBox="0 0 39 27" version="1.1" xmlns="http://www.w3.org/2000/svg" xmlns:xlink="http://www.w3.org/1999/xlink">
    <!-- Generator: Sketch 56.3 (81716) - https://sketch.com -->
    <title>Shape</title>
    <desc>Created with Sketch.</desc>
    <g id="Page-1" stroke="none" stroke-width="1" fill="none" fill-rule="evenodd">
        <g id="12_聯絡我們" transform="translate(-318.000000, -1458.000000)" fill="#E4E4E4" fill-rule="nonzero">
            <g id="youtube" transform="translate(318.000000, 1458.000000)">
                <path d="M38.1860124,4.22578125 C37.7361772,2.559375 36.4152325,1.2515625 34.7372757,0.80859375 C31.6955328,0 19.5,0 19.5,0 C19.5,0 7.30446723,0 4.26272428,0.80859375 C2.58476748,1.2515625 1.26382278,2.559375 0.81398755,4.22578125 C0,7.2421875 0,13.528125 0,13.528125 C0,13.528125 0,19.8140625 0.81398755,22.8304688 C1.26382278,24.4898438 2.58476748,25.7484375 4.26272428,26.1914063 C7.30446723,27 19.5,27 19.5,27 C19.5,27 31.6955328,27 34.7372757,26.1914063 C36.4152325,25.7484375 37.7361772,24.4898438 38.1860124,22.8304688 C39,19.8140625 39,13.528125 39,13.528125 C39,13.528125 39,7.23515625 38.1860124,4.22578125 Z M15.5086049,19.2375 L15.5086049,7.81875 L25.6977298,13.528125 L15.5086049,19.2375 L15.5086049,19.2375 Z" id="Shape"></path>
            </g>
        </g>
    </g>
</svg>